<svg viewBox="0 0 755 761" xmlns="http://www.w3.org/2000/svg">
  <defs>
    <linearGradient x1="54552%" y1="65439%" x2="54552%" y2="7243%" id="contact-email-a">
      <stop stop-color="gray" stop-opacity=".3" offset="0%"/>
      <stop stop-color="gray" stop-opacity=".1" offset="54%"/>
      <stop stop-color="gray" stop-opacity=".1" offset="100%"/>
    </linearGradient>
    <linearGradient x1="50%" y1="100%" x2="50%" y2="0%" id="contact-email-b">
      <stop stop-color="#FFF" stop-opacity=".1" offset="0%"/>
      <stop stop-color="#FFF" stop-opacity=".1" offset="55%"/>
      <stop stop-color="#FFF" stop-opacity="0" offset="100%"/>
    </linearGradient>
    <linearGradient x1="54465%" y1="33986%" x2="54465%" y2="21200%" id="contact-email-c">
      <stop stop-color="gray" stop-opacity=".3" offset="0%"/>
      <stop stop-color="gray" stop-opacity=".1" offset="54%"/>
      <stop stop-color="gray" stop-opacity=".1" offset="100%"/>
    </linearGradient>
    <linearGradient x1="55134%" y1="29195%" x2="55134%" y2="21712%" id="contact-email-d">
      <stop stop-color="#FFF" stop-opacity=".1" offset="0%"/>
      <stop stop-color="#FFF" stop-opacity=".1" offset="55%"/>
      <stop stop-color="#FFF" stop-opacity="0" offset="100%"/>
    </linearGradient>
    <linearGradient x1="34718%" y1="38457%" x2="34718%" y2="32357%" id="contact-email-e">
      <stop stop-color="#FFF" stop-opacity=".1" offset="0%"/>
      <stop stop-color="#FFF" stop-opacity=".1" offset="55%"/>
      <stop stop-color="#FFF" stop-opacity="0" offset="100%"/>
    </linearGradient>
    <linearGradient x1="95880%" y1="33416%" x2="95880%" y2="26901%" id="contact-email-f">
      <stop stop-color="gray" stop-opacity=".3" offset="0%"/>
      <stop stop-color="gray" stop-opacity=".1" offset="54%"/>
      <stop stop-color="gray" stop-opacity=".1" offset="100%"/>
    </linearGradient>
  </defs>
  <g transform="translate(5)" fill="none" fill-rule="evenodd">
    <path d="M13.5 538C-9.7 434-82-45.2 643 254" stroke="#69F0AE" stroke-width="9" stroke-dasharray="12"/>
    <rect fill="url(#contact-email-a)" fill-rule="nonzero" x="119" width="422" height="761" rx="12.3"/>
    <rect fill="#FFF" fill-rule="nonzero" x="125" y="10" width="410" height="740" rx="13.6"/>
    <path d="M433.1 29a33.3 33.3 0 0 1-32.8 28.3H258.5c-16.4 0-30.3-12-32.8-28.3h-75.1A15.6 15.6 0 0 0 135 44.6v671.8a15.6 15.6 0 0 0 15.6 15.6h358.8a15.6 15.6 0 0 0 15.6-15.6V44.6A15.6 15.6 0 0 0 509.4 29h-76.3z" fill="#007049" fill-rule="nonzero"/>
    <rect fill="#DBDBDB" fill-rule="nonzero" x="285" y="38" width="91" height="6" rx="2"/>
    <circle fill="#DBDBDB" fill-rule="nonzero" cx="395.5" cy="40.5" r="3.5"/>
    <path d="M416.5 238l-30-22.6 13-17-21.8-17.1-13.6 17.2-30.8-23.1a6.8 6.8 0 0 0-8.2 0L243.3 236c-3 2.7-6 5.6-6 12.5l-.3 93.6v4.2a10.2 10.2 0 0 0 10.2 10.2h4l77.6.2 81.6.2a10.2 10.2 0 0 0 10.2-10.2l.2-97.6h.2c0-6.9-1.4-8.7-4.5-11.3z" fill="url(#contact-email-b)" fill-rule="nonzero"/>
    <path d="M413 251.5c0-6.2-1.3-7.8-4.1-10.2l-76-57a6.2 6.2 0 0 0-7.5 0l-74.6 55.4a13.1 13.1 0 0 0-5.5 11.4h-.1l-.2 85.4v3.8c0 5.2 4.2 9.4 9.3 9.4h3.7l70.8.1 74.5.2c5.1 0 9.3-4.2 9.3-9.3l.2-89.1h.2z" fill="url(#contact-email-c)" fill-rule="nonzero"/>
    <path d="M246.1 250.8l165 .4-.2 90.5a5.5 5.5 0 0 1-5.5 5.5l-153.4-.4a6 6 0 0 1-6-6l.2-90z" fill="#007049" fill-rule="nonzero"/>
    <path d="M246.1 250.8l165 .4-.2 90.5a5.5 5.5 0 0 1-5.5 5.5l-153.4-.4a6 6 0 0 1-6-6l.2-90z" fill="#FFF" fill-rule="nonzero" opacity=".2"/>
    <path d="M246.2 251l-.2 83a12.7 12.7 0 0 0 12.8 12.7l139.2.3" fill="#F5F5F5" fill-rule="nonzero"/>
    <path d="M411 251l-.2 83.2A12.8 12.8 0 0 1 398 347l-139-.3" fill="#FFF" fill-rule="nonzero"/>
    <path d="M325.8 186.2l-73.4 54.2a12.8 12.8 0 0 0-5.4 11l165 .6c0-6.1-1.3-7.7-4-10l-74.8-55.8a6.1 6.1 0 0 0-7.4 0z" fill="#007049" fill-rule="nonzero"/>
    <path d="M325.8 186.2l-73.4 54.2a12.8 12.8 0 0 0-5.4 11l165 .6c0-6.1-1.3-7.7-4-10l-74.8-55.8a6.1 6.1 0 0 0-7.4 0z" fill="#000" fill-rule="nonzero" opacity=".2"/>
    <path fill="url(#contact-email-d)" fill-rule="nonzero" d="M393 204.7L373.1 189l-48 61.1-26-20-16.1 20.6 37.6 28.8 9.3 7.5z"/>
    <path fill="#FFF" fill-rule="nonzero" d="M391 204.8L373 191l-47.7 62.3-26.5-20.4-13.8 18 35.5 27.3 9 6.8z"/>
    <path fill="url(#contact-email-e)" fill-rule="nonzero" d="M197 423h267v80H197z"/>
    <path fill="#69F0AE" fill-rule="nonzero" d="M206 431h249v58H206z"/>
    <g fill-rule="nonzero">
      <path fill="url(#contact-email-f)" d="M119.3 81.3l4.7.7-.7-.7h.4l-.7-.2L38 0 17.2 32.8 0 62.6 8 64 4.4 80z" transform="translate(626 212)"/>
      <path fill="#007049" d="M646.7 245.7L631 273.1 746 292l-74-52z"/>
      <path fill="#000" opacity=".2" d="M646.7 245.7L631 273.1 746 292l-74-52z"/>
      <path fill="#007049" d="M665.8 216l80.2 76-99-46zM635 289.9l111 2.1-103.6-37z"/>
    </g>
  </g>
</svg>
