<svg viewBox="0 0 685 33" xmlns="http://www.w3.org/2000/svg">
  <title>Berkeley Business Forms Ltd</title>
  <path d="M.7 1.8V.8L3.5.7a1019.9 1019.9 0 0 1 11-.4c3.7 0 6.6.6 8.5 1.8 2 1.3 3 3.2 3 5.7s-1.8 4.5-5.4 6.1c5.1 1.4 7.7 4.3 7.7 8.7 0 1.4-.3 2.6-1 3.8a9.5 9.5 0 0 1-2.8 3 16.2 16.2 0 0 1-9.4 2.6 540.8 540.8 0 0 1-10.4 0H1.3v-.8l3.1-.6c.6-.1 1-.4 1.3-.7.3-.4.5-1 .5-2V3.7 3c0-.2-.2-.3-.3-.5l-.7-.3c-.3 0-.7 0-1.3-.2L.6 1.7zm9.5 12.4c.6.1 2 .2 4.2.2a8.4 8.4 0 0 0 5.4-2 6 6 0 0 0 1.6-2.2c.4-.8.6-1.7.6-2.7 0-2-.7-3.5-2-4.5a9.7 9.7 0 0 0-6-1.6c-1.3 0-2.5.2-3.8.5v12.3zm0 1.5v11.2c0 2.5 2 3.8 5.9 3.8 1 0 2-.2 3-.6a9 9 0 0 0 2.6-1.6c.7-.7 1.3-1.4 1.8-2.4.4-.9.6-1.8.6-2.8 0-2.7-.8-4.6-2.5-5.9-1.6-1.3-4.1-1.9-7.6-1.9a35.8 35.8 0 0 0-3.8.2zM63 23.9c-.7 3-1.1 5.7-1.3 8.2a618 618 0 0 0-29.1 0v-.9L36 31c.6 0 1-.1 1.2-.4.2-.2.3-.6.3-1.4V4.1a4 4 0 0 0-.2-1.7c-.2-.4-.5-.6-1-.6l-3.6-.4V.6a416.7 416.7 0 0 0 26.8 0 36 36 0 0 0 0 6.9h-.6a72.1 72.1 0 0 0-2.4-5c-.2-.3-.5-.5-.8-.6l-1-.2H43.1c-.6 0-1 .2-1.1.5-.3.3-.4.8-.4 1.6v11.5H53c.6 0 1 0 1.3-.3.2-.2.4-.6.5-1.2l.7-3.5h1c-.2 4-.2 8 0 12h-.6l-1.1-3.9-.6-1.1a2 2 0 0 0-1-.6l-1.3-.2H41.7v12.4c0 .7 0 1.2.3 1.5.3.3.9.5 1.8.5h11c.8 0 1.4-.1 2-.3.6-.1 1.1-.4 1.7-1l1.6-2 1.8-3.8h1zm2.7 7.5l2.8-.3c1-.1 1.6-.3 1.9-.6.3-.3.5-1 .5-2V5.1l-.1-1.3a2 2 0 0 0-.4-.9 2 2 0 0 0-.8-.6L68 1.9l-2.2-.4v-.4-.4a55.2 55.2 0 0 1 3 0l6.6-.3c.8-.2 1.7-.2 2.6-.2 3.8 0 6.7.6 8.6 1.7C88.5 3 89.4 5 89.4 7.8a7 7 0 0 1-1.5 4.7c-1 1.1-2.5 2.2-4.5 3.2l5.5 9.7c.8 1.3 1.4 2.4 2 3 .6.8 1.1 1.3 1.7 1.7.5.4 1.1.7 1.7.8.6 0 1.4.2 2.3.4v.7h-8.8L80.3 18c-.5-1-1.4-1.5-2.5-1.5h-2.8v11.8c0 .8.2 1.4.5 1.8.3.3.8.6 1.6.8l2.5.6v.8a130.7 130.7 0 0 0-13.9 0v-.8zM74.9 15c6.7.2 10.1-1.9 10.1-6.4 0-2.1-.7-3.8-2.3-5a9.2 9.2 0 0 0-6.1-2 14 14 0 0 0-1.7.1V15zm36 17.2a36.5 36.5 0 0 0-6.5-.2 128 128 0 0 0-6.4.2v-.8l3.2-.4 1-.5.2-1.2v-26c0-.6 0-1-.2-1.1-.2-.2-.5-.3-1-.4L98 1.5V.6a61.9 61.9 0 0 0 9.8.1l3.1-.1v.8l-3.4.5c-.5 0-.8 0-1 .3-.1.2-.2.5-.2 1.1v26c0 .5 0 1 .3 1.1.2.2.5.4 1 .5l3.3.5v.8zm23.4 0a69.5 69.5 0 0 0-7.5-.2 159.3 159.3 0 0 0-7.4.2v-.8l3.5-.6c.6 0 .8-.2.8-.5 0-.2-.2-.6-.9-1.1l-11.6-9.8a64.7 64.7 0 0 0-4-3l2.3-1.4 2.4-1.8 9-7.6c1.8-1.5 2.6-2.5 2.6-3.1 0-.4-.2-.5-.7-.6l-3.5-.5V.6a74.7 74.7 0 0 0 12.1 0v.8a15 15 0 0 0-4.5 1.1L124.5 4l-2.8 2.2-10.2 8.6 14.8 12.7a59 59 0 0 0 3.5 2.8c.6.4 1.2.6 1.9.8l2.6.4v.8zm31.1-8.4c-.7 3-1.1 5.8-1.2 8.3a618 618 0 0 0-29.2 0v-.9l3.6-.2c.6 0 1-.1 1.2-.4.2-.2.3-.6.3-1.4V4.1a4 4 0 0 0-.3-1.7c-.2-.4-.5-.6-1-.6l-3.6-.4V.6a416.7 416.7 0 0 0 26.9 0 36 36 0 0 0 0 6.9h-.7a72.1 72.1 0 0 0-2.3-5c-.3-.3-.5-.5-.8-.6l-1-.2h-11.7c-.5 0-.9.2-1.1.5-.2.3-.3.8-.3 1.6v11.5h11.3c.5 0 1 0 1.2-.3.3-.2.5-.6.6-1.2l.6-3.5h1c-.2 4-.2 8 0 12h-.6l-1-3.9c-.2-.5-.4-.9-.7-1.1a2 2 0 0 0-.9-.6l-1.4-.2h-10.1v12.4c0 .7.1 1.2.4 1.5.3.3.8.5 1.7.5h11.1c.7 0 1.4-.1 2-.3.5-.1 1-.4 1.6-1l1.6-2c.6-1 1.2-2.2 1.8-3.8h1zm12.1 6c0 .4 0 .7.2 1 .2.1.6.3 1.2.3h4.7l4-.2c1.2-.1 2.2-.4 3.1-.8.9-.5 1.7-1.2 2.4-2.2.7-.9 1.4-2.2 2.1-3.9h.8l-1.4 8.2a175.2 175.2 0 0 0-14-.2 551 551 0 0 0-13 .2v-.7l3-.4 1.8-.4c.4-.1.7-.3.8-.6.2-.2.3-.5.3-1V3.6c0-.6-.2-1-.4-1.2a2 2 0 0 0-1-.4l-3.8-.6V.6a159.6 159.6 0 0 0 14.8 0v.8l-4.3.6c-.5.1-.8.2-1 .4-.2.1-.3.5-.3 1.3v26zm50.4-6c-.7 3-1.1 5.8-1.3 8.3a618 618 0 0 0-29.2 0v-.9l3.7-.2c.5 0 1-.1 1.1-.4.2-.2.4-.6.4-1.4V4.1a4 4 0 0 0-.3-1.7c-.2-.4-.5-.6-1-.6l-3.7-.4V.6a416.7 416.7 0 0 0 27 0 36 36 0 0 0-.1 6.9h-.7a72.1 72.1 0 0 0-2.3-5c-.2-.3-.5-.5-.8-.6l-1-.2h-11.6c-.6 0-1 .2-1.2.5-.2.3-.3.8-.3 1.6v11.5H218c.6 0 1 0 1.3-.3l.6-1.2.6-3.5h1c-.2 4-.2 8 0 12h-.6l-1.1-3.9-.6-1.1a2 2 0 0 0-1-.6l-1.3-.2h-10.2v12.4c0 .7.2 1.2.5 1.5.2.3.8.5 1.7.5h11c.8 0 1.4-.1 2-.3.6-.1 1.1-.4 1.6-1 .6-.5 1.1-1.2 1.7-2l1.8-3.8h1zm22.1 6.9l3.8.6v.8a369.2 369.2 0 0 0-15.2 0v-.8l2.6-.4c.8 0 1.6-.2 2.2-.5.6-.3 1-.7 1-1.3v-8.4c0-.8-.3-1.6-1-2.5l-8.8-13.3c-1.4-2-2.5-3.1-3.3-3.2l-2.2-.3V.6a116.5 116.5 0 0 0 13.4 0l.1.8-3.2.5c-.9.1-1.3.4-1.3.9 0 .2 0 .4.2.6l9 13.8A824.6 824.6 0 0 1 256.6 3c0-.6-.4-1-1.2-1.1l-3.2-.5V.6a109 109 0 0 0 10.6 0v.8l-1.8.4c-1 0-2.3 1.4-4.2 4l-8 11.3c-.3.4-.5.8-.6 1.3l-.1 2.4v8.1c0 1 .6 1.6 1.9 1.8zm27.5-29V1l3-.2a1019.9 1019.9 0 0 1 11-.4c3.7 0 6.5.6 8.5 1.8 2 1.3 3 3.2 3 5.7s-1.8 4.5-5.4 6.1c5 1.4 7.6 4.3 7.6 8.7 0 1.4-.2 2.6-1 3.8a9.5 9.5 0 0 1-2.8 3c-1.2 1-2.6 1.6-4.2 2-1.6.5-3.3.7-5.1.6a540.8 540.8 0 0 1-10.5 0h-3.5v-.8l3.1-.6c.7-.1 1.1-.4 1.4-.7.3-.4.4-1 .4-2V3.7 3c0-.2-.1-.3-.3-.5l-.6-.3c-.4 0-.8 0-1.4-.2l-3.2-.3zm9.6 12.5c.5.1 2 .2 4.1.2a8.4 8.4 0 0 0 5.5-2 6 6 0 0 0 1.6-2.2c.3-.8.5-1.7.5-2.7 0-2-.7-3.5-2-4.5a9.7 9.7 0 0 0-6-1.6c-1.3 0-2.5.2-3.7.5v12.3zm0 1.5v11.2c0 2.5 2 3.8 5.8 3.8 1 0 2-.2 3-.6a9 9 0 0 0 2.6-1.6c.8-.7 1.4-1.4 1.8-2.4.4-.9.6-1.8.6-2.8 0-2.7-.8-4.6-2.4-5.9-1.6-1.3-4.2-1.9-7.6-1.9a35.8 35.8 0 0 0-3.8.2zM322.5.6v.8l-3.1.4c-.7 0-1 .3-1.3.7-.3.4-.4 1-.4 1.8v17.8c0 3.3.7 5.6 2 7 1.3 1.4 3.5 2.1 6.6 2.1 2 0 3.8-.2 5.1-.7a6.3 6.3 0 0 0 3.2-2.2c.7-1 1.2-2.4 1.5-4 .4-1.7.5-3.7.5-6.1V4.4c0-1.4-.7-2.2-2-2.5l-3-.5V.6a47.8 47.8 0 0 0 5.1.2l5.2-.2v.8l-3 .6c-.7.2-1 1-1 2.3v15.2c0 2.3-.3 4.3-.7 6-.4 1.7-1 3-2 4.1a8 8 0 0 1-3.5 2.4c-1.4.5-3.2.8-5.3.8-4 0-7.2-.8-9.4-2.5s-3.3-4.2-3.3-7.4V4.1c0-.8 0-1.3-.2-1.7-.2-.3-.5-.5-1-.6l-3.5-.4V.6a167 167 0 0 0 13.5 0zm40.3 7.6c-1-4.4-3.4-6.6-7.2-6.6a7.2 7.2 0 0 0-4.5 1.5c-.6.5-1 1-1.4 1.7a4.4 4.4 0 0 0-.1 3.6c.2.5.5 1 1.1 1.5l2.4 1.7a88.4 88.4 0 0 0 7.9 4.3c1 .6 2 1.3 2.8 2 .7.7 1.2 1.5 1.6 2.4.3.9.5 2 .5 3.1 0 2.9-1 5.1-3 6.8a12 12 0 0 1-8.1 2.6c-3.3 0-6.2-.8-8.9-2.3l.6-7.5h.6a9.5 9.5 0 0 0 3 6c.8.8 1.7 1.4 2.6 1.8 1 .4 2 .6 3 .6a8.5 8.5 0 0 0 5-1.5 6 6 0 0 0 1.5-1.9 5.6 5.6 0 0 0 .3-4.4 5 5 0 0 0-1.3-1.8c-.6-.5-1.3-1.1-2.3-1.7A75 75 0 0 0 355 18c-3-1.6-5.2-3-6.6-4.6a7.2 7.2 0 0 1-2-5 7.3 7.3 0 0 1 2.8-5.9c.9-.7 1.9-1.2 3.1-1.6 1.2-.5 2.5-.7 4-.7 2.9 0 5.3.8 7.3 2.3l-.3 5.7h-.6zm12.6 21.1V3.4c0-.5 0-1-.3-1.1-.2-.3-.5-.4-1-.4l-4.4-.5V.6a153.6 153.6 0 0 0 15.3 0v.8l-3 .4h-1.2a3 3 0 0 0-.9.2l-.4.5c-.2.2-.2.5-.2 1v25.8c0 .6 0 1 .3 1.1.1.2.4.3 1 .4l4.3.2v1.2l-2.8-.2a183.1 183.1 0 0 0-12.4.2V31l3-.1a46.1 46.1 0 0 0 2.1-.3c.2 0 .4-.2.5-.4l.1-.9zm18.7-.7c0 .9 0 1.4.3 1.7.2.3.6.5 1.2.6l4.6.5v.8a120.1 120.1 0 0 0-13 0v-.9l2.8-.4c1.1-.3 1.9-.5 2.2-.8.3-.2.4-.7.4-1.5V6.8a9 9 0 0 0-.5-3.4c-.3-.8-1-1.2-1.9-1.4l-2.9-.4V.7h6c.7 0 1.2.1 1.5.3l1.1 1 22.7 24.7-.6-22.5c0-1-.1-1.5-.4-1.8-.3-.3-.7-.4-1.4-.5l-4.3-.5V.6a62 62 0 0 0 10.9 0v.8l-2.2.2c-.5 0-.9.3-1 .6l-.2 2 .6 28.4h-1.3L394.1 6.1v22.5zm63.3-4.8c-.8 3-1.2 5.8-1.3 8.3a618 618 0 0 0-29.2 0v-.9l3.6-.2c.6 0 1-.1 1.2-.4.2-.2.3-.6.3-1.4V4.1a4 4 0 0 0-.3-1.7c-.2-.4-.5-.6-1-.6l-3.6-.4V.6a416.7 416.7 0 0 0 26.9 0 36 36 0 0 0 0 6.9h-.7a72.1 72.1 0 0 0-2.3-5c-.3-.3-.5-.5-.8-.6l-1-.2h-11.6c-.6 0-1 .2-1.2.5-.2.3-.3.8-.3 1.6v11.5h11.3c.5 0 1 0 1.2-.3.3-.2.5-.6.6-1.2l.7-3.5h1c-.3 4-.3 8 0 12h-.6l-1.2-3.9c-.1-.5-.3-.9-.6-1.1a2 2 0 0 0-.9-.6l-1.4-.2h-10.1v12.4c0 .7.1 1.2.4 1.5.3.3.8.5 1.7.5h11.1c.7 0 1.4-.1 2-.3.5-.1 1-.4 1.6-1l1.6-2 1.9-3.8h1zm20.4-15.7c-1-4.3-3.4-6.5-7.2-6.5a7.2 7.2 0 0 0-4.5 1.5c-.6.5-1 1-1.4 1.7a4.4 4.4 0 0 0-.1 3.6c.2.5.5 1 1.1 1.5l2.4 1.7a88.4 88.4 0 0 0 7.9 4.3c1 .6 2 1.3 2.8 2 .7.7 1.2 1.5 1.6 2.4.3.9.5 2 .5 3.1 0 2.9-1 5.1-3 6.8a12 12 0 0 1-8.1 2.6c-3.3 0-6.2-.8-8.9-2.3l.6-7.5h.6a9.5 9.5 0 0 0 3 6c.8.8 1.7 1.4 2.6 1.8 1 .4 2 .6 3 .6a8.5 8.5 0 0 0 5-1.5 6 6 0 0 0 1.5-1.9 5.6 5.6 0 0 0 .3-4.4 5 5 0 0 0-1.3-1.8c-.6-.5-1.3-1.1-2.3-1.7A75 75 0 0 0 470 18c-3-1.6-5.2-3-6.6-4.6a7.2 7.2 0 0 1-2-5 7.3 7.3 0 0 1 2.8-5.9c.9-.7 1.9-1.2 3.1-1.6 1.2-.5 2.5-.7 4-.7 2.9 0 5.3.8 7.3 2.3l-.3 5.7h-.6zm24.4 0c-1-4.3-3.3-6.5-7.1-6.5a7.2 7.2 0 0 0-4.6 1.5c-.6.5-1 1-1.3 1.7a4.4 4.4 0 0 0-.2 3.6c.2.5.6 1 1.1 1.5l2.4 1.7a88.4 88.4 0 0 0 8 4.3c1 .6 2 1.3 2.7 2 .7.7 1.3 1.5 1.6 2.4.3.9.5 2 .5 3.1 0 2.9-1 5.1-3 6.8a12 12 0 0 1-8.1 2.6c-3.2 0-6.2-.8-8.8-2.3l.5-7.5h.7a9.5 9.5 0 0 0 3 6c.8.8 1.6 1.4 2.6 1.8 1 .4 2 .6 3 .6A8.5 8.5 0 0 0 500 30a6 6 0 0 0 1.5-1.9c.5-.7.6-1.5.6-2.4 0-.8 0-1.4-.3-2a5 5 0 0 0-1.2-1.8l-2.4-1.7a75 75 0 0 0-3.8-2.1c-3-1.6-5.1-3-6.5-4.6a7.2 7.2 0 0 1-2-5 7.3 7.3 0 0 1 2.7-5.9 12.6 12.6 0 0 1 7.1-2.3c3 0 5.4.8 7.3 2.3l-.2 5.7h-.6zM536 32.3a120 120 0 0 0-13.9 0v-.8l3.3-.3c.5-.1.9-.3 1-.5.3-.3.4-.7.4-1.4v-25c0-.8-.1-1.3-.3-1.7-.1-.3-.5-.5-1-.6l-3-.3v-1l5.9.1a2577.9 2577.9 0 0 0 19.5 0 32.3 32.3 0 0 0-.1 3.6v3.5h-.6a49.5 49.5 0 0 0-1.8-4.6 2 2 0 0 0-1-.9 4 4 0 0 0-1.3-.1h-10.8c-.6 0-1 .1-1.2.4-.2.3-.3.9-.3 1.6v11.1h10.4c.7 0 1 0 1.3-.2.2-.2.4-.6.5-1.3l.8-3.5h.8a68.4 68.4 0 0 0-.1 5l.1 6h-.6l-1.1-3.4c-.2-.7-.5-1-.8-1.2l-2-.2h-9.3v12.7c0 .9.2 1.4.5 1.5.3.2.7.3 1.4.4l3.3.3v.8zm33.1.6c-2.5 0-4.8-.4-7-1.2-2-.8-3.9-2-5.4-3.4a15 15 0 0 1-4.8-11.4 16.3 16.3 0 0 1 5-11.7c1.5-1.5 3.3-2.7 5.6-3.5a19.9 19.9 0 0 1 13.7-.1 16.4 16.4 0 0 1 8.8 8.6c.9 2 1.3 4.2 1.3 6.5 0 2.4-.4 4.6-1.3 6.6-.8 2-2 3.7-3.5 5a16.3 16.3 0 0 1-5.4 3.4c-2.1.8-4.5 1.2-7 1.2zm-12.6-15.7a16.5 16.5 0 0 0 3.5 10.3c1.1 1.4 2.4 2.5 4 3.3 1.4.8 3.1 1.2 4.9 1.2 4.3 0 7.5-1.3 9.7-3.9 2.2-2.6 3.3-6.2 3.3-11a21 21 0 0 0-1-6.4c-.5-2-1.4-3.6-2.5-5a11.8 11.8 0 0 0-9.3-4.4 11.6 11.6 0 0 0-9.4 4.6c-1 1.4-1.8 3.1-2.4 5-.6 2-.9 4-.9 6.3zm33.8 14.3l2.7-.3c1-.1 1.6-.3 2-.6.2-.3.4-1 .4-2V5.1 3.8a2 2 0 0 0-.4-.9 2 2 0 0 0-.8-.6l-1.6-.4-2.1-.4v-.4l-.1-.4a55.2 55.2 0 0 1 3.1 0l6.6-.3c.8-.2 1.6-.2 2.5-.2 3.9 0 6.7.6 8.6 1.7 2 1.1 2.9 3.1 2.9 5.9a7 7 0 0 1-1.5 4.7c-1 1.1-2.5 2.2-4.5 3.2l5.5 9.7c.7 1.3 1.4 2.4 2 3 .5.8 1 1.3 1.6 1.7.6.4 1.2.7 1.8.8.6 0 1.3.2 2.3.4v.7h-8.8L604.8 18c-.6-1-1.4-1.5-2.5-1.5h-2.8v11.8c0 .8.1 1.4.4 1.8.3.3.9.6 1.7.8l2.4.6v.8a130.7 130.7 0 0 0-13.9 0v-.8zm9.3-16.4c6.7.2 10-1.9 10-6.4 0-2.1-.7-3.8-2.2-5a9.2 9.2 0 0 0-6.1-2 14 14 0 0 0-1.8.1V15zM662 32.1l-7.6-.1h-1a73.6 73.6 0 0 0-5.7.1v-.8l3-.6c.8-.1 1.2-.4 1.5-.7.2-.3.3-1 .3-2V4.8l-11.3 27.7L628 2.6v25.8c0 1.5.5 2.3 1.5 2.5l4.6.5v.8a120.1 120.1 0 0 0-12.9 0v-.9l2.8-.4 1.4-.4c.4-.1.6-.3.8-.5l.3-.6.1-1V2l-4.6-.6V.6a51.6 51.6 0 0 0 9.4 0l11.1 24.8L652.6.6a79.8 79.8 0 0 0 9.4 0v.8l-3 .6c-1 .3-1.7.5-2 1-.4.4-.6 1-.6 2v22.7c0 1 0 1.7.3 2 .2.4.5.7 1.1.8l4.3.9v.8zm19.7-24c-1-4.3-3.4-6.5-7.2-6.5a7.2 7.2 0 0 0-4.5 1.5c-.6.5-1 1-1.4 1.7a4.4 4.4 0 0 0-.2 3.6c.3.5.6 1 1.2 1.5l2.3 1.7a88.4 88.4 0 0 0 8 4.3c1 .6 2 1.3 2.8 2 .7.7 1.2 1.5 1.6 2.4.3.9.5 2 .5 3.1 0 2.9-1 5.1-3 6.8a12 12 0 0 1-8.1 2.6c-3.3 0-6.2-.8-8.9-2.3l.6-7.5h.6a9.5 9.5 0 0 0 3 6c.8.8 1.7 1.4 2.6 1.8 1 .4 2 .6 3 .6a8.5 8.5 0 0 0 5-1.5 6 6 0 0 0 1.5-1.9 5.6 5.6 0 0 0 .3-4.4 5 5 0 0 0-1.3-1.8c-.6-.5-1.3-1.1-2.4-1.7A75 75 0 0 0 674 18c-3-1.6-5-3-6.5-4.6a7.2 7.2 0 0 1-2-5 7.3 7.3 0 0 1 2.8-5.9c.9-.7 1.9-1.2 3.1-1.6 1.2-.5 2.5-.7 4-.7 2.9 0 5.3.8 7.3 2.3l-.3 5.7h-.6z" fill="#ffffff" fill-rule="evenodd"/>
</svg>
