<svg viewBox="0 0 247 160" xmlns="http://www.w3.org/2000/svg">
  <title>
    BBF The Print Experts
  </title>
  <g fill="none" fill-rule="nonzero">
    <path d="M158.5 121.2c-4.6 4.7-10.5 7-17.5 7-7.1 0-13-2.2-17.6-6.8a24 24 0 0 1-6.8-15.8 58.5 58.5 0 0 1-4.3 20.6A52.2 52.2 0 0 1 99.2 145c4.1 3.8 8.8 6.8 14.2 9.2a68.1 68.1 0 0 0 27.8 5.6c8.4 0 16.2-1.4 23.3-4.2l.8-.3v-50.4a24.6 24.6 0 0 1-6.8 16.3M101.3 62c4.7 5 8.4 10.9 11.1 17.9 2.5 6.1 3.8 13 4 20.3.3-2.7.9-5.2 1.8-7.6A24.7 24.7 0 0 1 131 78.7c3-1.3 6.3-2 9.8-2 7.1 0 13 2.4 17.5 7.3 4.2 4.5 6.5 10 6.9 16.7V48.5a51 51 0 0 0-18-3.1A43.2 43.2 0 0 0 116 57V3.2l-5.8-1.8c-3-1-6.5-1.4-10.3-1.4-5.4 0-9.7 1.1-13 3.4C83.7 5.7 82 9.6 82 15.1v34.3A49.5 49.5 0 0 1 101.3 62" fill="#2E2B2B"/>
    <path d="M204.5 30.6c3.2-2.8 7.5-4.2 13-4.2 3.9 0 7.7.6 11.3 1.8a23 23 0 0 1 8.2 4.1c2.3-1.1 4.4-3 6.3-5.8 2-2.7 3-5.7 3-9 0-3-.8-5.6-2.4-7.5a18.6 18.6 0 0 0-5-4.3c-3.3-2-7.2-3.4-11.8-4.3a81.3 81.3 0 0 0-34.8 1.2 35.8 35.8 0 0 0-24 21.9 54.3 54.3 0 0 0-3.3 20V48l2.4 1a50.8 50.8 0 0 1 28 29.6c2.7 7 4.1 14.9 4.1 23.6a60 60 0 0 1-4.4 23.4A52.6 52.6 0 0 1 165 155v.1h34.8V79.6h37.6c.6-1 1.4-3 2.6-6.2 1.1-3.2 1.7-6.6 1.7-10.2 0-5.1-1.4-9-4-11.4-2.8-2.6-7.4-3.8-14-3.8h-24v-4.7c0-5.6 1.7-9.9 4.8-12.7" fill="#2E2B2B"/>
    <path d="M195 126.4a60 60 0 0 0 4.5-23.4 64 64 0 0 0-4.1-23.6A50.8 50.8 0 0 0 165 48.8V101a35.6 35.6 0 0 1 0 4.4v50.4a52.6 52.6 0 0 0 30-29.4" fill="#FFEB2B"/>
    <path d="M75.4 121.3c-4.6 4.7-10.4 7-17.4 7-7 0-12.8-2.3-17.4-6.8a25 25 0 0 1-6.8-18.6c0-3.6.6-7 1.8-10.2A24.5 24.5 0 0 1 48.3 79c3-1.4 6.2-2 9.7-2 7 0 12.8 2.4 17.4 7.2 4.5 4.9 6.8 11.1 6.8 18.7s-2.3 13.8-6.8 18.4m17.4 16.5a50 50 0 0 1-7.9-16.9 89.5 89.5 0 0 1-2.7-23.6V48.9c-5.5-2-11.4-3-17.5-3a42.9 42.9 0 0 0-31 11.6V4.1c-.8-.3-2.8-1-5.8-1.8-3-1-6.4-1.4-10.2-1.4A22 22 0 0 0 4.8 4.3C1.6 6.5 0 10.4 0 15.9v82c0 9 1 16.8 2.7 23.4a49.5 49.5 0 0 0 7.8 16.7A51 51 0 0 0 31 154a67.5 67.5 0 0 0 27.6 5.5c8.2 0 16-1.3 23-4a56 56 0 0 0 17.6-10.8 51.6 51.6 0 0 1-6.4-7" fill="#2E2B2B"/>
    <path d="M112.1 126.7a58.5 58.5 0 0 0 4.4-26.2 61.8 61.8 0 0 0-4-20.3A50.4 50.4 0 0 0 82 49.8V98c0 9 .9 17 2.7 23.6A50 50 0 0 0 99 145.5l1-.8c5.1-5 9.2-11 12.1-18" fill="#00A397"/>
  </g>
</svg>
