<svg viewBox="0 0 106 55" xmlns="http://www.w3.org/2000/svg">
  <g fill="none" fill-rule="evenodd">
    <rect fill="#A8A9AD" width="105.6" height="55" rx="2"/>
    <path d="M10.5 44.5c-.2-.7 0-1 1.3-1.3 1.7-.3 2.2-.8 2.4-2.1.3-1.6.3-25.6 0-26.7-.3-1.2-.9-1.6-2.6-1.8-1-.1-1.5-.2-1.6-.5-.2-.6.1-1.1.7-1.3a104.5 104.5 0 0 1 15.7 0c3.5.6 5.8 2 7 4.3.7 1.3.8 4.4.3 6-.5 1.4-2 3-3.7 4-1.3.7-1.3.8 0 1 1.3.4 3.2 1.5 4.3 2.6a8.3 8.3 0 0 1 2.4 5.5c.3 5.1-2.5 8.7-8 10.2-1.7.5-2.4.5-10 .5-7.9 0-8 0-8.2-.4zM27 42.6c2.7-.7 4-2.3 4.6-5.1.2-1.4.2-1.9-.1-3.4a7.6 7.6 0 0 0-5.8-6.2c-1.3-.4-5.6-.5-6.4-.2-.4.2-.4.5-.3 6.1 0 6.2.2 7 1.1 8l1.2.9c1 .4 4.3.4 5.7 0zm-2.3-17.4a5.8 5.8 0 0 0 3.9-2.9c.5-1 .6-1.4.6-3.1 0-2.3-.3-3.2-1.5-4.5a7.2 7.2 0 0 0-4.5-2.2c-1.7-.2-3.8 0-4 .5-.2.2-.3 3-.3 6.2 0 4.4 0 6 .3 6.2.3.3 3.6.2 5.5-.2zm16.9 19.6l-.1-.7c0-.5 0-.6.6-.7l1.4-.3c.3 0 .8-.4 1.1-.7l.6-.6V28.5v-14c-.2-1.3-.6-1.5-2.4-1.8-1.6-.3-1.7-.4-1.8-1 0-1 .4-1 7.6-1.2 5.4 0 7 0 8.6.3 3.9.7 6 2 7.2 4.4.5 1.1.6 1.5.6 3.3 0 1.8 0 2.2-.6 3.2a9.3 9.3 0 0 1-3.6 3.5c-.5.2-.8.5-.8.6l1.3.5c1.4.3 3.5 1.7 4.4 2.9a9.6 9.6 0 0 1-.9 12.6 12.4 12.4 0 0 1-6.1 2.8c-2 .4-3 .4-9.7.4-4 0-7.4 0-7.4-.2zM59 42.3c2.6-1.3 3.7-3.5 3.5-6.8-.1-1-.3-2.4-.6-3a8.1 8.1 0 0 0-4.2-4.1c-2.2-.9-6-1.3-7.2-.7l-.6.2V34c.1 7.2.2 7.6 2 8.5 1 .5 1.3.5 3.4.5 2-.1 2.6-.2 3.7-.7zm-4.7-17c4.2-.5 6-2.6 5.7-6.8-.2-3.9-3-6-7.4-6-2.9 0-2.7-.5-2.7 6.7 0 3.3 0 6.2.2 6.3.2.2 2.4.1 4.2-.1zM72 44.9l-.1-.7c0-.6 0-.6 1-.8 1.9-.2 2.6-.5 3-1.3.3-.6.4-1.8.4-12.8.1-12.8 0-15.5-.8-16.3-.2-.2-1-.5-1.8-.6-1.4-.3-1.4-.3-1.3-1v-.7H95.1v1.1l.1 3.6.2 2.4-.7.1c-.7.2-1 0-1.2-1.2-.4-1.7-1.2-2.8-2.4-3.4-1-.5-1.3-.6-5.6-.6H81v13.8H84c3.9.2 5.9 0 6.5-.5.3-.3.6-1 .8-2 .4-1.7.7-2 1.6-1.8.3.1.4.6.4 5.5V33h-.8c-.7 0-.8-.1-1-1.2-.9-3-1-3-5.6-3.2h-4.3l-.9.2.1 6.4c.1 8 0 7.8 3.7 8.2l1.3.1-.1.7v.7H71.8z" fill="#007049" fill-rule="nonzero"/>
  </g>
</svg>
