<svg viewBox="0 0 404 149" xmlns="http://www.w3.org/2000/svg">
  <title>Berkeley Business Forms Ltd</title>
  <path d="M.016 7.72V3.776l13.688-.696c14.539-.773 26.061-1.353 34.568-1.74C56.779.953 62.269.76 64.744.76c17.323 0 30.547 2.939 39.672 8.816 9.125 5.877 13.688 14.616 13.688 26.216 0 11.445-8.352 20.88-25.056 28.304 23.819 6.496 35.728 19.875 35.728 40.136.155 6.496-1.353 12.49-4.524 17.98-3.17 5.49-7.579 10.208-13.224 14.152-5.645 3.944-12.219 6.999-19.72 9.164-7.501 2.165-15.428 3.093-23.78 2.784-8.043 0-16.085-.039-24.128-.116-8.043-.077-16.085-.116-24.128-.116H2.8v-3.712l14.616-2.784c2.939-.619 5.027-1.74 6.264-3.364 1.237-1.624 1.856-4.679 1.856-9.164V16.768c0-1.237-.039-2.281-.116-3.132-.077-.85-.464-1.585-1.16-2.204-.696-.619-1.74-1.083-3.132-1.392-1.392-.31-3.403-.619-6.032-.928L.016 7.72zM44.56 65.488c2.475.464 8.893.696 19.256.696 5.104 0 9.783-.812 14.036-2.436 4.253-1.624 7.965-3.828 11.136-6.612a28.272 28.272 0 0 0 7.308-9.976c1.701-3.867 2.552-8.12 2.552-12.76 0-9.28-3.132-16.279-9.396-20.996-6.264-4.717-15.428-7.076-27.492-7.076-6.032 0-11.832.696-17.4 2.088v57.072zm0 6.96v51.968c0 11.755 9.048 17.632 27.144 17.632 4.795 0 9.435-.928 13.92-2.784 4.485-1.856 8.468-4.33 11.948-7.424a34.448 34.448 0 0 0 8.236-10.904c2.01-4.176 3.016-8.507 3.016-12.992 0-12.528-3.79-21.73-11.368-27.608-7.579-5.877-19.333-8.816-35.264-8.816-2.63 0-5.452.077-8.468.232-3.016.155-6.07.387-9.164.696zM140.696 7.72V3.776l13.688-.696c14.539-.773 26.061-1.353 34.568-1.74 8.507-.387 13.997-.58 16.472-.58 17.323 0 30.547 2.939 39.672 8.816 9.125 5.877 13.688 14.616 13.688 26.216 0 11.445-8.352 20.88-25.056 28.304 23.819 6.496 35.728 19.875 35.728 40.136.155 6.496-1.353 12.49-4.524 17.98-3.17 5.49-7.579 10.208-13.224 14.152-5.645 3.944-12.219 6.999-19.72 9.164-7.501 2.165-15.428 3.093-23.78 2.784-8.043 0-16.085-.039-24.128-.116-8.043-.077-16.085-.116-24.128-.116H143.48v-3.712l14.616-2.784c2.939-.619 5.027-1.74 6.264-3.364 1.237-1.624 1.856-4.679 1.856-9.164V16.768c0-1.237-.039-2.281-.116-3.132-.077-.85-.464-1.585-1.16-2.204-.696-.619-1.74-1.083-3.132-1.392-1.392-.31-3.403-.619-6.032-.928l-15.08-1.392zm44.544 57.768c2.475.464 8.893.696 19.256.696 5.104 0 9.783-.812 14.036-2.436 4.253-1.624 7.965-3.828 11.136-6.612a28.272 28.272 0 0 0 7.308-9.976c1.701-3.867 2.552-8.12 2.552-12.76 0-9.28-3.132-16.279-9.396-20.996-6.264-4.717-15.428-7.076-27.492-7.076-6.032 0-11.832.696-17.4 2.088v57.072zm0 6.96v51.968c0 11.755 9.048 17.632 27.144 17.632 4.795 0 9.435-.928 13.92-2.784 4.485-1.856 8.468-4.33 11.948-7.424a34.448 34.448 0 0 0 8.236-10.904c2.01-4.176 3.016-8.507 3.016-12.992 0-12.528-3.79-21.73-11.368-27.608-7.579-5.877-19.333-8.816-35.264-8.816-2.63 0-5.452.077-8.468.232-3.016.155-6.07.387-9.164.696zm162.488 76.56a556.457 556.457 0 0 0-16.704-.696 671.073 671.073 0 0 0-18.096-.232c-6.341 0-11.91.077-16.704.232-4.795.155-8.97.387-12.528.696v-3.712l14.848-1.624c2.63-.31 4.37-1.044 5.22-2.204.85-1.16 1.276-3.21 1.276-6.148V18.856c0-3.403-.348-5.916-1.044-7.54-.696-1.624-2.281-2.59-4.756-2.9l-13.688-1.624V2.616c3.557.155 12.528.27 26.912.348 14.384.077 34.49.116 60.32.116 6.96 0 12.915-.039 17.864-.116 4.95-.077 9.125-.193 12.528-.348-.155 2.01-.27 4.408-.348 7.192a346.403 346.403 0 0 0-.116 9.512v9.512c0 2.784.077 5.181.232 7.192h-3.016c-1.701-5.568-3.21-10.092-4.524-13.572-1.315-3.48-2.63-6.187-3.944-8.12-1.315-1.933-2.823-3.21-4.524-3.828-1.701-.619-3.79-.928-6.264-.928h-49.88c-2.63 0-4.408.735-5.336 2.204-.928 1.47-1.392 3.983-1.392 7.54v51.504h48.256c2.784 0 4.679-.425 5.684-1.276 1.005-.85 1.817-2.745 2.436-5.684l3.712-16.472h3.712c-.155 2.939-.27 6.303-.348 10.092-.077 3.79-.116 8.159-.116 13.108 0 9.744.232 19.101.696 28.072h-3.248l-4.872-16.008c-.928-3.093-2.165-4.95-3.712-5.568-1.547-.619-4.64-.928-9.28-.928h-42.92v58.928c0 4.021.657 6.38 1.972 7.076 1.315.696 3.596 1.199 6.844 1.508l14.848 1.624v3.712z" fill="#ffffff" fill-rule="evenodd"/>
</svg>
